HIERARCHY
ROOT SpineBase
{
  OFFSET 0.000000 0.000000 0.000000
  CHANNELS 6 Xposition Yposition Zposition Zrotation Xrotation Yrotation
  JOINT SpineMid
  {
    OFFSET 0.000000 31.276218 0.000000
    CHANNELS 3 Zrotation Xrotation Yrotation
    JOINT SpineShoulder
    {
      OFFSET -0.202799 23.279237 -0.752395
      CHANNELS 3 Zrotation Xrotation Yrotation
      JOINT Neck
      {
        OFFSET -0.144924 7.706248 -0.564154
        CHANNELS 3 Zrotation Xrotation Yrotation
        JOINT Head
        {
          OFFSET 4.911763 14.057696 -0.346552
          CHANNELS 3 Zrotation Xrotation Yrotation
          End Site
          {
            OFFSET 0 0 0
          }
        }
      }
      JOINT ShoulderLeft
      {
        OFFSET -16.078885 -2.407747 -6.570465
        CHANNELS 3 Zrotation Xrotation Yrotation
        JOINT ElbowLeft
        {
          OFFSET -6.558700 -22.969286 -4.417641
          CHANNELS 3 Zrotation Xrotation Yrotation
          JOINT WristLeft
          {
            OFFSET 1.308565 -21.438785 -5.826678
            CHANNELS 3 Zrotation Xrotation Yrotation
            JOINT HandLeft
            {
              OFFSET -0.645637 -3.716019 -1.611881
              CHANNELS 3 Zrotation Xrotation Yrotation
              JOINT HandTipLeft
              {
                OFFSET 0.286639 -6.371816 -3.301602
                CHANNELS 3 Zrotation Xrotation Yrotation
                End Site
                {
                  OFFSET 0 0 0
                }
              }
              JOINT ThumbLeft
              {
                OFFSET -1.937435 -3.189167 -3.592275
                CHANNELS 3 Zrotation Xrotation Yrotation
                End Site
                {
                  OFFSET 0 0 0
                }
              }
            }
          }
        }
      }
      JOINT ShoulderRight
      {
        OFFSET 16.469752 -6.644674 5.417599
        CHANNELS 3 Zrotation Xrotation Yrotation
        JOINT ElbowRight
        {
          OFFSET 0.508372 -26.242226 -0.439420
          CHANNELS 3 Zrotation Xrotation Yrotation
          JOINT WristRight
          {
            OFFSET -2.605188 -20.752494 -7.942044
            CHANNELS 3 Zrotation Xrotation Yrotation
            JOINT HandRight
            {
              OFFSET -2.942847 -2.942782 -0.849276
              CHANNELS 3 Zrotation Xrotation Yrotation
              JOINT HandTipRight
              {
                OFFSET -0.903508 -7.816797 -0.246266
                CHANNELS 3 Zrotation Xrotation Yrotation
                End Site
                {
                  OFFSET 0 0 0
                }
              }
              JOINT ThumbRight
              {
                OFFSET -3.464387 -0.035777 -2.341248
                CHANNELS 3 Zrotation Xrotation Yrotation
                End Site
                {
                  OFFSET 0 0 0
                }
              }
            }
          }
        }
      }
    }
  }
  JOINT HipLeft
  {
    OFFSET -8.180194 1.561718 -6.061919
    CHANNELS 3 Zrotation Xrotation Yrotation
    JOINT KneeLeft
    {
      OFFSET -8.596986 -28.487778 -3.696249
      CHANNELS 3 Zrotation Xrotation Yrotation
      JOINT AnkleLeft
      {
        OFFSET -2.821444 -34.130263 8.904530
        CHANNELS 3 Zrotation Xrotation Yrotation
        JOINT FootLeft
        {
          OFFSET 1.688221 -7.678534 -6.362073
          CHANNELS 3 Zrotation Xrotation Yrotation
          End Site
          {
            OFFSET 0 0 0
          }
        }
      }
    }
  }
  JOINT HipRight
  {
    OFFSET 6.753322 -0.415818 -0.918885
    CHANNELS 3 Zrotation Xrotation Yrotation
    JOINT KneeRight
    {
      OFFSET 0.540969 -29.978631 3.728592
      CHANNELS 3 Zrotation Xrotation Yrotation
      JOINT AnkleRight
      {
        OFFSET -1.922700 -33.888949 10.166968
        CHANNELS 3 Zrotation Xrotation Yrotation
        JOINT FootRight
        {
          OFFSET 2.330100 -4.209483 -12.986322
          CHANNELS 3 Zrotation Xrotation Yrotation
          End Site
          {
            OFFSET 0 0 0
          }
        }
      }
    }
  }
}
MOTION
Frames: 15
Frame Time: 0.033333
90.358358 100.104167 419.508060 -2.415686 -0.016021 -27.850952 -0.318843 0.119614 27.773011 -0.164592 0.210007 -0.109014 26.418283 0.736497 0.367608 0.000000 0.000000 0.000000 6.634199 -2.299102 0.098258 -10.563478 -1.059760 1.989590 26.723131 -25.067876 -2.273176 -17.452850 8.824030 5.496993 0.000000 0.000000 0.000000 0.000000 0.000000 0.000000 15.468432 -15.118646 1.444216 -14.383177 16.352369 2.945270 11.256228 2.659864 -8.314001 -13.259094 5.033316 6.208326 0.000000 0.000000 0.000000 0.000000 0.000000 0.000000 2.243268 -0.273475 28.295175 -4.683785 0.592453 -1.687392 3.096457 9.394938 4.746553 0.000000 0.000000 0.000000 -6.207359 5.144030 27.735653 -0.686925 -9.364222 -1.740208 2.004750 -25.856618 -4.153851 0.000000 0.000000 0.000000
91.657202 97.816238 419.506141 -4.418007 1.974165 -32.961287 -0.186071 0.143059 32.918559 -0.098382 0.172593 -0.161094 31.658064 -0.702709 1.373998 0.000000 0.000000 0.000000 6.860579 -2.252113 0.019782 -8.319898 -2.439833 1.848671 20.598319 -23.493303 -1.026035 -13.290230 12.004796 3.146688 0.000000 0.000000 0.000000 0.000000 0.000000 0.000000 17.366058 -18.362437 2.187091 -22.510817 23.350331 7.943020 6.206676 5.257663 -13.690107 -12.410751 2.035443 9.306229 0.000000 0.000000 0.000000 0.000000 0.000000 0.000000 2.959564 -2.758289 34.002402 -1.248690 -0.788610 -2.021649 5.049453 14.314328 2.687413 0.000000 0.000000 0.000000 -7.485547 3.636811 32.548978 2.357506 -10.910268 -1.328040 1.270784 -30.363617 -5.343200 0.000000 0.000000 0.000000
92.353332 95.109840 419.061121 -9.189491 7.205758 -38.083371 -0.066289 0.169426 38.450114 -0.020642 0.086499 -0.294694 40.349604 -6.178052 5.936891 0.000000 0.000000 0.000000 7.308592 -4.640527 0.495340 -2.339240 -4.629031 1.246648 12.386799 -15.731556 -0.736084 -10.425421 8.063221 2.974040 0.000000 0.000000 0.000000 0.000000 0.000000 0.000000 16.897732 -17.651154 2.474319 -29.844063 24.058977 13.437786 12.406838 1.380790 -17.471297 -20.533037 -0.135560 9.306265 0.000000 0.000000 0.000000 0.000000 0.000000 0.000000 9.117939 -6.604632 40.382293 2.166271 -1.260242 -2.599165 11.147591 26.277053 -2.349427 0.000000 0.000000 0.000000 -0.280782 4.150611 38.441797 -3.119254 -13.174923 -3.559335 4.319915 -32.715364 -6.461283 0.000000 0.000000 0.000000
92.477239 91.379240 418.666654 -13.131373 11.069154 -42.130496 0.363501 0.310417 43.141590 -0.174509 0.099843 -0.423287 45.092604 -8.792504 8.743493 0.000000 0.000000 0.000000 6.119437 -4.791649 0.505519 5.105523 -7.872340 1.047197 1.792255 -16.252323 2.869713 -3.456379 10.578995 -0.647694 0.000000 0.000000 0.000000 0.000000 0.000000 0.000000 17.863924 -18.367102 3.003808 -43.929979 26.987232 22.793758 23.698773 -4.704385 -20.827971 -33.003609 -7.471769 6.517266 0.000000 0.000000 0.000000 0.000000 0.000000 0.000000 14.742486 -8.736721 45.768554 5.620488 -1.664516 -3.026613 14.067558 34.734162 -5.884065 0.000000 0.000000 0.000000 4.411097 9.615802 44.342360 -12.553743 -20.775244 -8.338201 10.028173 -26.733613 -7.350917 0.000000 0.000000 0.000000
93.042133 88.883555 417.685071 -15.172742 14.558413 -50.278008 0.056015 0.154215 51.902544 -0.505086 -0.002393 -0.568687 45.479993 -9.760080 9.463406 0.000000 0.000000 0.000000 5.477014 -5.182472 0.299491 11.563128 -9.776376 1.434120 -8.372956 -19.370045 6.201804 5.468330 12.164675 -6.190190 0.000000 0.000000 0.000000 0.000000 0.000000 0.000000 39.715123 -26.428544 10.719669 -84.850683 28.877998 44.454607 43.320083 -14.577405 -19.412060 -48.972662 -6.961210 4.123590 0.000000 0.000000 0.000000 0.000000 0.000000 0.000000 25.333336 -10.928892 56.699050 4.469257 3.536089 -5.217925 29.928129 42.198791 -19.094085 0.000000 0.000000 0.000000 3.285084 16.503382 55.190285 -25.056360 -29.747727 -16.925670 17.804620 -14.066805 -5.074425 0.000000 0.000000 0.000000
94.337453 84.839015 418.083881 -14.659787 15.163068 -54.339492 0.048889 -0.132010 55.937283 0.316527 -0.594477 -0.467288 38.998616 -7.048563 5.930526 0.000000 0.000000 0.000000 3.265631 -3.022470 -0.266951 16.608171 -9.988397 1.880306 -15.057846 -24.296062 8.114029 12.298543 11.700959 -11.824418 0.000000 0.000000 0.000000 0.000000 0.000000 0.000000 171.866773 6.868703 27.400322 131.379411 3.762971 48.865548 52.245343 -21.644077 -15.866881 -52.012543 -4.560929 4.232113 0.000000 0.000000 0.000000 0.000000 0.000000 0.000000 26.925330 -13.370095 61.934754 5.612019 4.869823 -6.695443 34.669093 42.593181 -22.317153 0.000000 0.000000 0.000000 -7.146922 24.128293 63.665030 -37.658409 -42.687459 -29.274436 18.344682 -12.459073 5.512319 0.000000 0.000000 0.000000
96.689186 79.936442 419.793941 -9.993071 12.247405 -56.991058 -0.356248 -0.518312 57.765156 1.836808 -1.344533 -0.102639 27.369633 -1.910625 0.806433 0.000000 0.000000 0.000000 -1.155570 1.066728 -1.089311 18.232133 -9.407151 1.987557 -13.909845 -26.676109 8.102243 16.125760 8.250407 -16.797079 0.000000 0.000000 0.000000 0.000000 0.000000 0.000000 159.241131 -1.171498 35.993506 133.545971 -2.431172 56.668420 44.427190 -22.982182 -18.633716 -44.397373 -2.474931 4.835916 0.000000 0.000000 0.000000 0.000000 0.000000 0.000000 17.862521 -20.488344 64.488616 11.627160 4.997952 -8.287773 48.985279 48.669760 -32.890141 0.000000 0.000000 0.000000 -26.137828 30.564107 72.318505 -67.493527 -53.471856 -58.698038 21.253623 -11.227651 14.328561 0.000000 0.000000 0.000000
98.906704 74.143964 423.332833 -2.369483 1.974562 -56.847345 -0.456963 -0.922544 56.770804 3.395289 -1.846741 0.148303 13.782157 13.584320 -6.357684 0.000000 0.000000 0.000000 -6.602238 11.410643 -1.291349 16.080086 -8.285346 1.862051 -7.979509 -24.453075 6.444067 23.141457 -5.259980 -23.250721 0.000000 0.000000 0.000000 0.000000 0.000000 0.000000 131.662679 -22.002601 41.320135 154.255532 -9.136571 70.239054 30.074833 -24.145568 -22.049384 -32.427107 5.428145 7.463726 0.000000 0.000000 0.000000 0.000000 0.000000 0.000000 -7.181965 -26.954746 60.196984 20.934806 0.641236 -8.092068 49.253358 51.281089 -30.822614 0.000000 0.000000 0.000000 -66.230058 42.712332 91.546268 -108.934417 -50.304455 -99.556079 21.394474 -15.984386 16.210200 0.000000 0.000000 0.000000
101.621440 70.469387 427.135122 4.726650 -7.511948 -50.021691 -0.799867 -0.924428 50.451942 2.859033 -1.054380 0.126290 0.954062 26.733031 -8.499002 0.000000 0.000000 0.000000 -5.505280 18.311220 -2.932731 10.405340 -6.996183 1.671793 -0.044522 -20.985529 3.942100 42.786527 -29.536364 -31.762272 0.000000 0.000000 0.000000 0.000000 0.000000 0.000000 87.102541 -33.594061 24.696431 -172.589661 1.709125 79.874620 19.458246 -23.141571 -23.402155 -22.791760 12.305698 9.337214 0.000000 0.000000 0.000000 0.000000 0.000000 0.000000 -37.817617 -26.014631 47.787468 31.267172 -5.782415 -4.676489 41.328312 47.810028 -22.627221 0.000000 0.000000 0.000000 -97.625262 52.624985 108.558418 -125.025465 -40.319504 -114.148831 22.291069 -17.427355 12.633535 0.000000 0.000000 0.000000
104.915209 69.982034 431.302836 7.860093 -12.488828 -42.250503 -0.894707 -0.664062 43.325708 2.840839 -0.450448 0.072780 -9.659260 34.442823 -6.988640 0.000000 0.000000 0.000000 -3.182381 19.488524 -4.241040 -0.202856 -3.798171 1.906473 11.065836 -17.759563 -0.316093 41.106559 -30.908813 -24.235247 0.000000 0.000000 0.000000 0.000000 0.000000 0.000000 45.837439 -27.481917 6.867219 -135.917768 20.801336 75.638437 19.362253 -20.366719 -20.464848 -24.336493 20.601022 12.575797 0.000000 0.000000 0.000000 0.000000 0.000000 0.000000 -57.259795 -16.932337 40.104363 38.389761 -9.228541 0.153394 29.164877 40.691172 -10.454752 0.000000 0.000000 0.000000 -119.080495 59.597187 125.742156 -129.372073 -36.258430 -116.808992 21.143878 -26.370321 10.204127 0.000000 0.000000 0.000000
107.145955 72.273475 434.762517 5.998480 -13.154303 -35.091539 -0.997374 -0.110650 35.909829 1.895367 0.016209 0.004208 -15.639876 36.040937 -4.250240 0.000000 0.000000 0.000000 -0.181532 19.175394 -4.505157 -4.575466 -4.603071 2.610119 15.595720 -14.870641 -2.582878 32.041359 -29.411469 -16.724824 0.000000 0.000000 0.000000 0.000000 0.000000 0.000000 28.612254 -19.999132 1.666612 -109.536659 31.422986 65.087760 17.494043 -7.173809 -24.836281 -35.688980 25.057430 21.260163 0.000000 0.000000 0.000000 0.000000 0.000000 0.000000 -61.831646 -3.775488 37.524254 38.590003 -10.659140 3.950314 18.756406 24.175497 -0.554286 0.000000 0.000000 0.000000 -127.039070 68.599448 139.793992 -126.045195 -39.303842 -109.110441 18.243735 -23.612971 7.599816 0.000000 0.000000 0.000000
108.491377 75.623615 436.809852 0.627932 -9.058170 -30.076800 -0.793538 0.314641 30.096871 1.083896 0.228078 -0.078591 -16.744744 30.855073 -2.817521 0.000000 0.000000 0.000000 2.238127 16.139294 -3.485650 -3.931138 -6.386496 2.931214 15.839131 -14.776296 -2.600165 12.286046 -11.772233 -10.672059 0.000000 0.000000 0.000000 0.000000 0.000000 0.000000 25.533150 -18.066149 1.581520 -87.857267 34.250007 51.167340 17.937710 -0.344801 -25.707860 -27.640371 36.692289 27.955218 0.000000 0.000000 0.000000 0.000000 0.000000 0.000000 -55.179046 6.428455 34.509166 33.255576 -12.749477 4.613586 13.530442 16.234479 5.972347 0.000000 0.000000 0.000000 -108.074928 83.074038 135.021461 -112.897587 -43.071640 -88.927724 13.945641 -25.771844 -0.665059 0.000000 0.000000 0.000000
109.334332 80.775273 437.440980 -6.889486 -1.797693 -24.287444 -0.343875 0.599346 23.988630 0.186010 0.432108 -0.250657 -13.703727 19.699070 -2.867596 0.000000 0.000000 0.000000 4.465865 10.672012 -1.680462 -0.682459 -7.922114 3.078880 14.480654 -13.318485 -2.560824 -5.068443 -5.254545 -0.106138 0.000000 0.000000 0.000000 0.000000 0.000000 0.000000 27.251844 -19.040725 3.072098 -68.639772 31.384932 37.442501 19.378615 5.724730 -26.653887 -16.906637 38.014457 26.519050 0.000000 0.000000 0.000000 0.000000 0.000000 0.000000 -39.309273 14.192136 27.754153 23.119868 -15.833340 2.574787 10.354085 13.858252 11.743030 0.000000 0.000000 0.000000 40.738597 61.278609 8.911346 -81.074714 -34.968765 -45.568542 12.015308 -23.311375 -12.046349 0.000000 0.000000 0.000000
111.072858 86.718123 438.726801 -12.297471 3.615973 -21.413251 0.266331 0.664379 21.526182 -0.979790 1.024527 -0.418211 -16.854256 9.135212 -3.044104 0.000000 0.000000 0.000000 3.315387 6.366661 0.060757 2.849032 -8.231411 3.256456 13.641497 -20.324908 -0.599354 -7.455154 4.765145 0.887417 0.000000 0.000000 0.000000 0.000000 0.000000 0.000000 32.458846 -24.304033 5.770607 -59.655347 28.737413 32.013759 22.714958 10.175420 -28.209702 -4.661340 23.818234 21.885097 0.000000 0.000000 0.000000 0.000000 0.000000 0.000000 -25.455077 14.567506 22.939953 14.445247 -13.471869 -0.057342 7.266579 4.428116 16.046212 0.000000 0.000000 0.000000 44.075383 28.247364 18.467550 -53.585631 -16.415804 -16.297936 10.830401 -19.143101 -21.620853 0.000000 0.000000 0.000000
112.506599 91.834466 438.255327 -16.209726 8.053318 -29.169226 -0.182108 0.370864 29.929039 -1.669789 1.480551 -0.572154 -13.995455 2.147004 -4.253878 0.000000 0.000000 0.000000 3.396341 3.124858 0.831785 6.830026 -9.031753 3.449812 11.351309 -24.122550 0.652810 -6.997855 10.308940 0.904754 0.000000 0.000000 0.000000 0.000000 0.000000 0.000000 40.560037 -30.044826 9.717133 -65.686859 25.885094 36.626977 32.659893 9.111235 -30.087344 -29.418028 20.182582 20.131440 0.000000 0.000000 0.000000 0.000000 0.000000 0.000000 -13.373205 11.309268 29.109975 -2.893256 -14.994256 -7.021071 11.105710 0.411055 21.289967 0.000000 0.000000 0.000000 40.312334 14.126103 30.386820 -33.446184 -1.403506 -5.272121 8.727394 -17.868907 -26.428716 0.000000 0.000000 0.000000
